<svg width="513" height="512" viewBox="0 0 513 512" fill="none" xmlns="http://www.w3.org/2000/svg">
<path d="M512 0H0V512H512V0Z" fill="#1DA1F2"/>
<path d="M200.344 377.75C313.552 377.75 375.472 283.964 375.472 202.633C375.472 199.969 375.472 197.318 375.292 194.678C387.338 185.965 397.736 175.178 406 162.82C394.767 167.797 382.85 171.061 370.648 172.503C383.497 164.811 393.113 152.714 397.708 138.461C385.626 145.63 372.408 150.683 358.624 153.4C349.344 143.533 337.07 136.999 323.702 134.81C310.335 132.621 296.618 134.898 284.675 141.289C272.731 147.681 263.228 157.83 257.634 170.166C252.041 182.503 250.669 196.338 253.732 209.533C229.261 208.306 205.322 201.947 183.468 190.869C161.614 179.791 142.334 164.241 126.88 145.229C119.009 158.778 116.598 174.817 120.139 190.081C123.679 205.345 132.904 218.686 145.936 227.388C136.141 227.097 126.559 224.455 118 219.684C118 219.936 118 220.2 118 220.464C118.004 234.674 122.923 248.445 131.923 259.441C140.924 270.438 153.451 277.983 167.38 280.796C158.318 283.267 148.811 283.629 139.588 281.852C143.521 294.081 151.178 304.776 161.489 312.439C171.799 320.103 184.247 324.352 197.092 324.593C175.297 341.721 148.373 351.02 120.652 350.992C115.755 350.982 110.862 350.686 106 350.104C134.148 368.166 166.899 377.747 200.344 377.702" fill="white"/>
</svg>
